<svg xmlns="http://www.w3.org/2000/svg" xmlns:xlink="http://www.w3.org/1999/xlink" width="500" zoomAndPan="magnify" viewBox="0 0 375 374.999991" height="500" preserveAspectRatio="xMidYMid meet" version="1.0"><defs><clipPath id="519232fac4"><path d="M 176 130.207031 L 199 130.207031 L 199 154 L 176 154 Z M 176 130.207031 " clip-rule="nonzero"/></clipPath><clipPath id="2a29828957"><path d="M 132 192 L 243 192 L 243 244.914062 L 132 244.914062 Z M 132 192 " clip-rule="nonzero"/></clipPath><clipPath id="605f845aff"><path d="M 127.019531 137 L 174 137 L 174 194 L 127.019531 194 Z M 127.019531 137 " clip-rule="nonzero"/></clipPath><clipPath id="330bf6c8de"><path d="M 201 137 L 247.769531 137 L 247.769531 194 L 201 194 Z M 201 137 " clip-rule="nonzero"/></clipPath></defs><rect x="-37.5" width="450" fill="#ffffff" y="-37.499999" height="449.999989" fill-opacity="1"/><rect x="-37.5" width="450" fill="#ffffff" y="-37.499999" height="449.999989" fill-opacity="1"/><g clip-path="url(#519232fac4)"><path fill="#002b6d" d="M 176.273438 139.378906 C 176.394531 138.652344 176.613281 137.925781 176.925781 137.273438 C 177.191406 136.546875 177.578125 135.894531 177.992188 135.289062 C 178.402344 134.683594 178.863281 134.105469 179.371094 133.574219 C 179.902344 133.039062 180.480469 132.582031 181.160156 132.121094 C 181.765625 131.734375 182.417969 131.394531 183.144531 131.054688 C 183.796875 130.789062 184.523438 130.597656 185.25 130.402344 C 185.972656 130.28125 186.699219 130.210938 187.5 130.210938 C 188.222656 130.210938 188.949219 130.28125 189.675781 130.402344 C 190.402344 130.597656 191.125 130.789062 191.851562 131.054688 C 192.507812 131.394531 193.183594 131.710938 193.835938 132.121094 C 194.441406 132.582031 195.023438 133.039062 195.554688 133.574219 C 196.085938 134.105469 196.546875 134.683594 196.933594 135.289062 C 197.394531 135.941406 197.730469 136.621094 197.996094 137.273438 C 198.335938 138 198.53125 138.652344 198.652344 139.378906 C 198.84375 140.105469 198.917969 140.902344 198.917969 141.628906 C 198.917969 142.355469 198.84375 143.152344 198.652344 143.878906 C 198.53125 144.605469 198.3125 145.328125 197.996094 145.984375 C 197.730469 146.707031 197.394531 147.363281 196.933594 147.964844 C 196.546875 148.621094 196.0625 149.152344 195.554688 149.683594 C 195.023438 150.214844 194.441406 150.75 193.835938 151.136719 C 193.183594 151.523438 192.507812 151.933594 191.851562 152.199219 C 191.125 152.464844 190.402344 152.734375 189.675781 152.851562 C 188.949219 152.972656 188.222656 153.046875 187.5 153.046875 C 186.699219 153.046875 185.972656 152.972656 185.25 152.851562 C 184.523438 152.734375 183.796875 152.464844 183.144531 152.199219 L 183.070312 152.199219 C 182.417969 151.933594 181.742188 151.546875 181.160156 151.136719 C 180.507812 150.75 179.902344 150.214844 179.371094 149.683594 C 178.835938 149.152344 178.378906 148.621094 177.992188 147.964844 C 177.601562 147.363281 177.191406 146.707031 176.925781 145.984375 C 176.585938 145.328125 176.394531 144.605469 176.273438 143.878906 C 176.152344 143.152344 176.078125 142.355469 176.078125 141.628906 C 176.054688 140.902344 176.128906 140.105469 176.273438 139.378906 Z M 176.273438 139.378906 " fill-opacity="1" fill-rule="nonzero"/></g><path fill="#002b6d" d="M 172.691406 160.257812 C 174.144531 159.265625 175.742188 158.464844 177.3125 157.742188 C 178.910156 157.085938 180.554688 156.628906 182.273438 156.289062 C 183.988281 155.902344 185.707031 155.757812 187.5 155.757812 C 189.214844 155.757812 191.007812 155.878906 192.652344 156.289062 C 194.367188 156.628906 196.015625 157.085938 197.609375 157.742188 C 199.253906 158.464844 200.78125 159.265625 202.230469 160.257812 C 203.683594 161.25 205.0625 162.359375 206.269531 163.570312 C 207.527344 164.828125 208.640625 166.160156 209.632812 167.660156 C 210.554688 169.039062 211.425781 170.632812 212.078125 172.230469 C 212.730469 173.828125 213.261719 175.472656 213.601562 177.191406 C 213.941406 178.910156 214.132812 180.625 214.132812 182.417969 L 214.132812 182.609375 C 213.796875 182.417969 213.480469 182.269531 213.140625 182.148438 L 212.609375 181.957031 L 212.535156 181.957031 C 212.148438 181.761719 211.738281 181.691406 211.277344 181.570312 C 210.675781 181.449219 210.019531 181.375 209.367188 181.375 C 208.761719 181.375 208.109375 181.449219 207.503906 181.570312 C 207.046875 181.691406 206.632812 181.761719 206.175781 181.957031 L 206.125 181.957031 L 205.667969 182.148438 C 205.0625 182.34375 204.480469 182.683594 203.949219 183.019531 C 203.417969 183.40625 202.957031 183.820312 202.496094 184.277344 C 202.039062 184.738281 201.625 185.199219 201.238281 185.730469 C 200.902344 186.261719 200.585938 186.84375 200.367188 187.449219 L 200.101562 187.980469 C 199.980469 188.441406 199.835938 188.851562 199.761719 189.3125 C 199.640625 189.914062 199.570312 190.570312 199.570312 191.175781 C 199.570312 191.828125 199.640625 192.503906 199.761719 193.085938 C 199.835938 193.542969 199.957031 193.957031 200.101562 194.34375 L 200.101562 194.414062 L 200.367188 194.949219 C 200.5625 195.550781 200.902344 196.132812 201.238281 196.664062 C 201.625 197.199219 202.039062 197.65625 202.496094 198.117188 L 203.488281 199.109375 C 202.835938 199.449219 202.230469 199.761719 201.578125 200.101562 C 201.046875 200.441406 200.464844 200.828125 199.933594 201.214844 C 199.402344 201.601562 198.867188 202.085938 198.410156 202.542969 C 197.949219 202.929688 197.539062 203.414062 197.152344 203.800781 C 196.765625 204.261719 196.351562 204.722656 196.039062 205.253906 L 195.652344 205.785156 C 195.3125 205.59375 194.996094 205.449219 194.660156 205.328125 C 194.320312 205.207031 194.054688 205.058594 193.738281 204.988281 C 194.003906 204.792969 194.199219 204.601562 194.394531 204.382812 C 194.851562 203.921875 195.265625 203.464844 195.652344 202.929688 C 195.988281 202.328125 196.304688 201.820312 196.523438 201.214844 C 196.789062 200.609375 196.980469 200.027344 197.125 199.351562 C 197.246094 198.746094 197.320312 198.09375 197.320312 197.441406 C 197.320312 196.835938 197.246094 196.183594 197.125 195.578125 C 197.003906 194.921875 196.789062 194.320312 196.523438 193.714844 C 196.328125 193.109375 195.988281 192.527344 195.652344 191.996094 C 195.265625 191.464844 194.851562 191.003906 194.394531 190.542969 C 193.933594 190.085938 193.472656 189.675781 192.941406 189.285156 C 192.410156 188.949219 191.828125 188.632812 191.222656 188.414062 C 190.617188 188.148438 190.039062 187.957031 189.359375 187.8125 C 188.757812 187.691406 188.101562 187.617188 187.5 187.617188 C 186.84375 187.617188 186.167969 187.691406 185.585938 187.8125 C 184.933594 187.933594 184.328125 188.148438 183.722656 188.414062 C 183.121094 188.609375 182.609375 188.949219 182.078125 189.285156 C 181.472656 189.675781 181.015625 190.085938 180.554688 190.542969 C 180.09375 191.003906 179.683594 191.464844 179.371094 191.996094 C 178.984375 192.527344 178.714844 193.109375 178.449219 193.714844 C 178.183594 194.320312 177.992188 194.898438 177.917969 195.578125 C 177.796875 196.183594 177.722656 196.835938 177.722656 197.441406 C 177.722656 198.09375 177.796875 198.769531 177.917969 199.351562 C 177.992188 200.003906 178.183594 200.609375 178.449219 201.214844 C 178.714844 201.820312 178.984375 202.328125 179.371094 202.929688 C 179.707031 203.464844 180.09375 203.921875 180.554688 204.382812 C 180.75 204.578125 180.941406 204.769531 181.207031 204.988281 C 180.871094 205.058594 180.601562 205.179688 180.335938 205.328125 C 180 205.449219 179.613281 205.59375 179.273438 205.785156 L 178.886719 205.253906 C 178.546875 204.722656 178.160156 204.261719 177.773438 203.800781 C 177.386719 203.414062 176.972656 202.929688 176.515625 202.542969 C 176.054688 202.085938 175.523438 201.625 174.992188 201.214844 C 174.457031 200.800781 173.925781 200.414062 173.34375 200.101562 C 172.765625 199.785156 172.085938 199.449219 171.433594 199.109375 L 172.5 198.117188 C 172.957031 197.65625 173.371094 197.199219 173.683594 196.664062 C 174.023438 196.132812 174.335938 195.550781 174.605469 194.949219 L 174.796875 194.414062 L 174.796875 194.292969 C 174.917969 193.90625 175.0625 193.496094 175.136719 193.035156 C 175.257812 192.433594 175.328125 191.777344 175.328125 191.125 C 175.328125 190.519531 175.257812 189.867188 175.136719 189.261719 C 175.0625 188.804688 174.941406 188.390625 174.796875 187.933594 L 174.605469 187.398438 C 174.335938 186.796875 174 186.214844 173.683594 185.683594 C 173.371094 185.148438 172.886719 184.691406 172.5 184.230469 L 172.425781 184.230469 C 172.039062 183.769531 171.507812 183.359375 170.976562 182.972656 C 170.441406 182.632812 169.910156 182.320312 169.328125 182.101562 L 168.796875 181.910156 L 168.726562 181.910156 C 168.335938 181.714844 167.855469 181.640625 167.46875 181.519531 C 166.8125 181.398438 166.207031 181.328125 165.554688 181.328125 C 164.902344 181.328125 164.296875 181.398438 163.644531 181.519531 C 163.257812 181.640625 162.773438 181.714844 162.386719 181.910156 L 162.3125 181.910156 L 161.78125 182.101562 C 161.441406 182.222656 161.128906 182.367188 160.863281 182.5625 L 160.863281 182.367188 C 160.863281 180.578125 160.984375 178.859375 161.320312 177.140625 C 161.710938 175.425781 162.191406 173.78125 162.847656 172.183594 C 163.5 170.585938 164.371094 169.015625 165.363281 167.609375 C 166.355469 166.085938 167.417969 164.78125 168.675781 163.523438 C 169.910156 162.386719 171.242188 161.25 172.691406 160.257812 Z M 172.691406 160.257812 " fill-opacity="1" fill-rule="nonzero"/><path fill="#ff5050" d="M 180.628906 196.085938 C 180.699219 195.625 180.820312 195.214844 181.015625 194.753906 C 181.207031 194.367188 181.402344 193.882812 181.667969 193.570312 C 181.933594 193.183594 182.199219 192.84375 182.539062 192.503906 C 182.878906 192.164062 183.191406 191.851562 183.601562 191.632812 C 183.988281 191.367188 184.402344 191.101562 184.789062 190.980469 C 185.25 190.785156 185.707031 190.640625 186.117188 190.59375 C 186.578125 190.472656 187.039062 190.472656 187.5 190.472656 C 187.957031 190.472656 188.367188 190.472656 188.828125 190.59375 C 189.289062 190.664062 189.699219 190.785156 190.160156 190.980469 C 190.546875 191.101562 191.03125 191.367188 191.34375 191.632812 C 191.730469 191.828125 192.070312 192.164062 192.410156 192.503906 C 192.746094 192.84375 193.0625 193.15625 193.28125 193.570312 C 193.546875 193.957031 193.8125 194.367188 193.933594 194.753906 C 194.125 195.214844 194.273438 195.625 194.320312 196.085938 C 194.441406 196.542969 194.441406 196.957031 194.441406 197.414062 C 194.441406 197.875 194.441406 198.335938 194.320312 198.792969 C 194.246094 199.179688 194.125 199.664062 193.933594 200.125 C 193.8125 200.511719 193.546875 200.921875 193.28125 201.308594 C 193.015625 201.699219 192.746094 202.035156 192.410156 202.375 C 192.144531 202.714844 191.757812 202.980469 191.34375 203.246094 C 190.933594 203.511719 190.546875 203.707031 190.160156 203.898438 C 189.699219 204.09375 189.289062 204.238281 188.828125 204.285156 C 188.367188 204.335938 187.957031 204.40625 187.5 204.40625 C 187.039062 204.40625 186.578125 204.335938 186.117188 204.285156 C 185.730469 204.214844 185.25 204.09375 184.789062 203.898438 C 184.402344 203.707031 183.988281 203.511719 183.601562 203.246094 C 183.214844 202.980469 182.878906 202.714844 182.539062 202.375 C 182.199219 202.035156 181.933594 201.722656 181.667969 201.308594 C 181.402344 200.898438 181.207031 200.511719 181.015625 200.125 C 180.820312 199.664062 180.675781 199.207031 180.628906 198.792969 C 180.554688 198.335938 180.507812 197.875 180.507812 197.414062 C 180.507812 196.957031 180.554688 196.542969 180.628906 196.085938 Z M 180.628906 196.085938 " fill-opacity="1" fill-rule="nonzero"/><path fill="#ff5050" d="M 203.632812 195.019531 C 203.367188 194.632812 203.101562 194.222656 202.980469 193.835938 C 202.789062 193.375 202.640625 192.964844 202.59375 192.503906 C 202.472656 192.042969 202.472656 191.585938 202.472656 191.125 C 202.472656 190.664062 202.472656 190.253906 202.59375 189.796875 C 202.667969 189.335938 202.789062 188.925781 202.980469 188.464844 C 203.101562 188.078125 203.367188 187.59375 203.632812 187.277344 C 203.898438 186.890625 204.167969 186.480469 204.503906 186.214844 C 204.769531 185.875 205.160156 185.609375 205.570312 185.34375 C 205.957031 185.078125 206.367188 184.8125 206.753906 184.691406 C 207.214844 184.496094 207.625 184.351562 208.085938 184.304688 C 208.546875 184.183594 208.957031 184.183594 209.417969 184.183594 C 209.875 184.183594 210.335938 184.183594 210.796875 184.304688 C 211.183594 184.375 211.667969 184.496094 212.125 184.691406 C 212.511719 184.8125 212.925781 185.078125 213.3125 185.34375 C 213.699219 185.609375 214.035156 185.875 214.375 186.214844 C 214.714844 186.480469 214.980469 186.867188 215.246094 187.277344 C 215.511719 187.667969 215.707031 188.078125 215.898438 188.464844 C 216.019531 188.925781 216.238281 189.335938 216.285156 189.796875 C 216.335938 190.253906 216.40625 190.664062 216.40625 191.125 C 216.40625 191.585938 216.335938 192.042969 216.285156 192.503906 C 216.238281 192.964844 216.019531 193.375 215.898438 193.835938 C 215.707031 194.222656 215.511719 194.632812 215.246094 195.019531 C 214.980469 195.40625 214.714844 195.746094 214.375 196.085938 C 214.035156 196.421875 213.722656 196.691406 213.3125 196.957031 C 212.925781 197.222656 212.511719 197.414062 212.125 197.609375 C 211.667969 197.800781 211.207031 197.949219 210.796875 197.996094 C 210.335938 198.070312 209.875 198.117188 209.417969 198.117188 C 208.957031 198.117188 208.546875 198.042969 208.085938 197.996094 C 207.625 197.949219 207.214844 197.800781 206.753906 197.609375 C 206.367188 197.414062 205.957031 197.222656 205.570312 196.957031 C 205.183594 196.691406 204.769531 196.421875 204.503906 196.085938 C 204.167969 195.746094 203.828125 195.433594 203.632812 195.019531 Z M 203.632812 195.019531 " fill-opacity="1" fill-rule="nonzero"/><g clip-path="url(#2a29828957)"><path fill="#ff5050" d="M 242.027344 192.84375 C 241.6875 199.253906 240.308594 205.398438 237.9375 211.085938 C 235.15625 217.761719 231.140625 223.785156 226.109375 228.792969 C 216.191406 238.640625 202.570312 244.785156 187.5 244.785156 C 180.09375 244.785156 173.03125 243.332031 166.621094 240.621094 C 159.941406 237.839844 153.871094 233.824219 148.839844 228.792969 C 139.574219 219.480469 133.550781 206.851562 132.894531 192.84375 L 137.929688 197.875 L 141.171875 194.632812 C 141.628906 199.328125 142.765625 203.828125 144.484375 207.988281 C 145.476562 210.359375 146.660156 212.609375 147.992188 214.785156 C 148.066406 214.179688 148.113281 213.601562 148.257812 212.996094 C 148.453125 212.003906 148.71875 211.011719 149.128906 210.019531 C 149.46875 209.222656 149.925781 208.421875 150.386719 207.695312 L 150.316406 207.695312 L 150.773438 207.09375 C 150.96875 206.707031 151.234375 206.367188 151.574219 205.980469 L 151.644531 205.980469 L 151.71875 205.90625 L 151.71875 205.835938 L 151.789062 205.761719 C 152.054688 205.496094 152.324219 205.15625 152.589844 204.890625 C 152.925781 204.503906 153.386719 204.164062 153.847656 203.777344 C 154.304688 203.390625 154.765625 203.050781 155.175781 202.785156 C 155.832031 202.328125 156.507812 201.988281 157.234375 201.671875 C 157.886719 201.335938 158.613281 201.070312 159.289062 200.875 L 159.363281 200.875 L 159.433594 200.800781 L 159.652344 200.800781 L 159.652344 200.730469 L 159.871094 200.730469 L 159.941406 200.65625 C 160.28125 200.585938 160.546875 200.535156 160.863281 200.464844 C 161.660156 200.34375 162.460938 200.199219 163.304688 200.199219 L 164.539062 200.199219 C 165.410156 200.199219 166.257812 200.320312 167.128906 200.464844 C 167.25 200.535156 167.394531 200.535156 167.515625 200.585938 L 167.804688 200.585938 L 167.804688 200.65625 L 168.023438 200.65625 L 168.289062 200.730469 C 169.015625 200.921875 169.667969 201.191406 170.273438 201.457031 C 170.925781 201.722656 171.605469 202.058594 172.183594 202.449219 C 172.714844 202.714844 173.175781 203.050781 173.636719 203.367188 C 174.023438 203.707031 174.507812 204.09375 174.894531 204.480469 C 175.28125 204.816406 175.691406 205.207031 176.007812 205.542969 C 176.34375 205.929688 176.660156 206.34375 176.925781 206.730469 L 177.191406 207.066406 C 176.199219 207.722656 175.328125 208.445312 174.554688 209.246094 C 173.683594 210.117188 172.910156 211.109375 172.234375 212.074219 C 171.507812 213.140625 170.976562 214.179688 170.515625 215.316406 C 169.984375 216.429688 169.644531 217.640625 169.402344 218.824219 C 169.207031 220.011719 169.0625 221.269531 169.0625 222.453125 L 169.0625 232.761719 C 169.328125 232.882812 169.667969 232.953125 169.933594 233.097656 C 170.585938 233.363281 171.265625 233.632812 171.847656 233.898438 L 171.847656 222.453125 C 171.847656 221.390625 171.964844 220.351562 172.183594 219.359375 C 172.402344 218.367188 172.714844 217.375 173.105469 216.382812 C 173.492188 215.460938 173.976562 214.519531 174.554688 213.671875 C 175.136719 212.824219 175.8125 211.953125 176.539062 211.230469 C 177.265625 210.503906 178.0625 209.851562 178.910156 209.246094 C 179.828125 208.714844 180.699219 208.179688 181.691406 207.792969 C 182.609375 207.40625 183.601562 207.066406 184.667969 206.875 C 185.660156 206.679688 186.722656 206.609375 187.765625 206.609375 C 188.828125 206.609375 189.820312 206.679688 190.8125 206.875 C 191.875 207.066406 192.867188 207.40625 193.789062 207.792969 C 194.78125 208.179688 195.699219 208.714844 196.570312 209.246094 C 197.441406 209.851562 198.214844 210.503906 198.941406 211.230469 C 199.738281 211.953125 200.390625 212.824219 200.925781 213.671875 C 201.53125 214.542969 202.039062 215.460938 202.449219 216.382812 C 202.835938 217.375 203.101562 218.367188 203.320312 219.359375 C 203.539062 220.351562 203.660156 221.414062 203.660156 222.453125 L 203.660156 233.96875 C 204.3125 233.703125 204.917969 233.4375 205.570312 233.171875 C 205.835938 233.050781 206.175781 232.976562 206.441406 232.832031 L 206.441406 222.527344 C 206.441406 221.339844 206.367188 220.082031 206.101562 218.898438 C 205.835938 217.710938 205.496094 216.527344 205.039062 215.390625 C 204.578125 214.253906 203.972656 213.214844 203.320312 212.148438 C 202.59375 211.15625 201.796875 210.164062 200.949219 209.316406 C 200.152344 208.519531 199.304688 207.792969 198.359375 207.140625 L 198.554688 206.800781 C 198.894531 206.414062 199.160156 206.003906 199.546875 205.617188 C 199.882812 205.277344 200.199219 204.890625 200.609375 204.550781 C 200.996094 204.164062 201.480469 203.753906 201.941406 203.4375 C 202.328125 203.101562 202.859375 202.785156 203.320312 202.519531 C 203.925781 202.132812 204.578125 201.792969 205.230469 201.527344 C 205.882812 201.261719 206.5625 200.996094 207.214844 200.800781 L 207.480469 200.730469 L 207.699219 200.730469 L 207.699219 200.65625 L 207.988281 200.65625 C 208.109375 200.585938 208.253906 200.585938 208.375 200.535156 C 209.246094 200.414062 210.09375 200.269531 210.964844 200.269531 L 212.269531 200.269531 C 213.070312 200.269531 213.914062 200.390625 214.714844 200.535156 C 214.980469 200.609375 215.320312 200.65625 215.585938 200.730469 L 215.65625 200.730469 L 215.730469 200.800781 L 215.875 200.800781 L 215.949219 200.875 L 216.164062 200.875 L 216.164062 200.949219 L 216.238281 200.949219 C 216.964844 201.140625 217.617188 201.40625 218.292969 201.746094 C 219.019531 202.085938 219.671875 202.398438 220.351562 202.859375 C 220.8125 203.125 221.269531 203.464844 221.730469 203.851562 C 222.191406 204.238281 222.601562 204.578125 222.988281 204.964844 C 223.253906 205.230469 223.519531 205.566406 223.785156 205.835938 L 223.785156 205.90625 L 223.929688 206.050781 C 224.269531 206.4375 224.535156 206.777344 224.800781 207.164062 L 225.1875 207.769531 C 225.648438 208.496094 226.058594 209.292969 226.375 210.09375 C 226.761719 211.085938 227.101562 212.074219 227.292969 213.066406 C 227.367188 213.671875 227.488281 214.253906 227.488281 214.859375 C 228.867188 212.679688 230.003906 210.429688 230.996094 208.058594 C 232.714844 203.898438 233.898438 199.398438 234.308594 194.707031 L 237.550781 197.949219 Z M 242.027344 192.84375 " fill-opacity="1" fill-rule="nonzero"/></g><g clip-path="url(#605f845aff)"><path fill="#002b6d" d="M 148.886719 182.925781 L 137.902344 193.90625 L 127.019531 182.925781 L 133.355469 182.925781 C 133.960938 178.160156 135.21875 173.609375 136.984375 169.304688 C 139.765625 162.628906 143.78125 156.554688 148.816406 151.523438 C 155.417969 144.917969 163.742188 140.03125 173.078125 137.515625 L 173.949219 137.25 C 173.757812 137.78125 173.613281 138.3125 173.492188 138.847656 C 173.371094 139.765625 173.226562 140.710938 173.226562 141.628906 C 173.226562 142.546875 173.34375 143.492188 173.492188 144.410156 C 173.613281 144.871094 173.683594 145.28125 173.828125 145.667969 C 170.199219 146.78125 166.765625 148.378906 163.597656 150.289062 C 160.28125 152.199219 157.304688 154.59375 154.597656 157.304688 C 150.289062 161.609375 146.855469 166.691406 144.484375 172.375 C 143.105469 175.738281 142.113281 179.320312 141.507812 182.949219 L 148.886719 182.949219 Z M 148.886719 182.925781 " fill-opacity="1" fill-rule="nonzero"/></g><g clip-path="url(#330bf6c8de)"><path fill="#002b6d" d="M 247.980469 182.925781 L 236.996094 193.90625 L 226.109375 182.925781 L 233.4375 182.925781 C 232.835938 179.296875 231.84375 175.714844 230.464844 172.351562 C 228.140625 166.667969 224.65625 161.585938 220.351562 157.28125 C 217.714844 154.570312 214.664062 152.199219 211.425781 150.265625 C 208.183594 148.328125 204.746094 146.757812 201.117188 145.644531 C 201.238281 145.257812 201.382812 144.847656 201.457031 144.386719 C 201.652344 143.46875 201.722656 142.523438 201.722656 141.605469 C 201.722656 140.683594 201.652344 139.742188 201.457031 138.820312 C 201.335938 138.289062 201.191406 137.757812 201.070312 137.226562 L 201.867188 137.492188 C 206.488281 138.75 210.867188 140.539062 214.882812 142.910156 C 219.042969 145.28125 222.820312 148.207031 226.109375 151.5 C 231.140625 156.53125 235.15625 162.601562 237.9375 169.28125 C 239.730469 173.585938 240.988281 178.132812 241.640625 182.898438 L 247.980469 182.898438 Z M 247.980469 182.925781 " fill-opacity="1" fill-rule="nonzero"/></g><path fill="#ff5050" d="M 172.425781 192.527344 C 172.304688 192.988281 172.160156 193.398438 172.039062 193.859375 C 171.847656 194.246094 171.652344 194.65625 171.386719 195.042969 C 171.121094 195.433594 170.78125 195.769531 170.515625 196.109375 C 170.175781 196.449219 169.789062 196.714844 169.449219 196.980469 C 169.0625 197.246094 168.652344 197.441406 168.191406 197.632812 C 167.804688 197.828125 167.320312 197.972656 166.933594 198.019531 C 166.476562 198.09375 166.015625 198.140625 165.554688 198.140625 C 165.097656 198.140625 164.636719 198.070312 164.226562 198.019531 C 163.765625 197.949219 163.304688 197.828125 162.894531 197.632812 C 162.433594 197.441406 162.023438 197.246094 161.636719 196.980469 C 161.25 196.714844 160.910156 196.449219 160.570312 196.109375 C 160.304688 195.769531 159.96875 195.457031 159.703125 195.042969 C 159.433594 194.632812 159.242188 194.246094 159.097656 193.859375 C 158.902344 193.398438 158.757812 192.988281 158.636719 192.527344 C 158.5625 192.070312 158.515625 191.609375 158.515625 191.148438 C 158.515625 190.691406 158.589844 190.277344 158.636719 189.820312 C 158.757812 189.359375 158.902344 188.949219 159.097656 188.488281 C 159.21875 188.101562 159.433594 187.617188 159.703125 187.304688 C 159.96875 186.917969 160.304688 186.503906 160.570312 186.238281 C 160.910156 185.898438 161.226562 185.632812 161.636719 185.367188 C 162.046875 185.101562 162.433594 184.835938 162.894531 184.714844 C 163.28125 184.519531 163.765625 184.375 164.226562 184.328125 C 164.613281 184.207031 165.097656 184.207031 165.554688 184.207031 C 166.015625 184.207031 166.476562 184.207031 166.933594 184.328125 C 167.320312 184.398438 167.804688 184.519531 168.191406 184.714844 C 168.652344 184.835938 169.0625 185.101562 169.449219 185.367188 C 169.789062 185.632812 170.175781 185.898438 170.515625 186.238281 C 170.855469 186.578125 171.121094 186.890625 171.386719 187.304688 C 171.652344 187.691406 171.847656 188.101562 172.039062 188.488281 C 172.160156 188.949219 172.304688 189.359375 172.425781 189.820312 C 172.5 190.277344 172.546875 190.691406 172.546875 191.148438 C 172.546875 191.609375 172.5 192.042969 172.425781 192.527344 Z M 172.425781 192.527344 " fill-opacity="1" fill-rule="nonzero"/></svg>