<svg xmlns="http://www.w3.org/2000/svg" xmlns:xlink="http://www.w3.org/1999/xlink" width="500" zoomAndPan="magnify" viewBox="0 0 375 374.999991" height="500" preserveAspectRatio="xMidYMid meet" version="1.0"><defs><g/><clipPath id="506b56eb18"><path d="M 176 86.589844 L 199 86.589844 L 199 110 L 176 110 Z M 176 86.589844 " clip-rule="nonzero"/></clipPath><clipPath id="d492d9db1c"><path d="M 132 149 L 243 149 L 243 201.296875 L 132 201.296875 Z M 132 149 " clip-rule="nonzero"/></clipPath><clipPath id="42722e88b4"><path d="M 127.019531 93 L 174 93 L 174 151 L 127.019531 151 Z M 127.019531 93 " clip-rule="nonzero"/></clipPath><clipPath id="9bedcf8ba2"><path d="M 201 93 L 247.769531 93 L 247.769531 151 L 201 151 Z M 201 93 " clip-rule="nonzero"/></clipPath></defs><rect x="-37.5" width="450" fill="#ffffff" y="-37.499999" height="449.999989" fill-opacity="1"/><rect x="-37.5" width="450" fill="#ffffff" y="-37.499999" height="449.999989" fill-opacity="1"/><g fill="#002b6d" fill-opacity="1"><g transform="translate(53.331827, 243.732274)"><g><path d="M 8.265625 0.3125 C 6.804688 0.3125 5.394531 0.113281 4.03125 -0.28125 C 2.664062 -0.675781 1.566406 -1.191406 0.734375 -1.828125 L 2.1875 -5.046875 C 2.976562 -4.460938 3.921875 -3.992188 5.015625 -3.640625 C 6.109375 -3.296875 7.203125 -3.125 8.296875 -3.125 C 9.515625 -3.125 10.410156 -3.300781 10.984375 -3.65625 C 11.566406 -4.019531 11.859375 -4.5 11.859375 -5.09375 C 11.859375 -5.539062 11.6875 -5.90625 11.34375 -6.1875 C 11 -6.476562 10.554688 -6.710938 10.015625 -6.890625 C 9.484375 -7.066406 8.757812 -7.265625 7.84375 -7.484375 C 6.4375 -7.816406 5.28125 -8.148438 4.375 -8.484375 C 3.476562 -8.816406 2.707031 -9.351562 2.0625 -10.09375 C 1.425781 -10.832031 1.109375 -11.816406 1.109375 -13.046875 C 1.109375 -14.128906 1.398438 -15.101562 1.984375 -15.96875 C 2.566406 -16.84375 3.441406 -17.535156 4.609375 -18.046875 C 5.785156 -18.554688 7.21875 -18.8125 8.90625 -18.8125 C 10.082031 -18.8125 11.234375 -18.671875 12.359375 -18.390625 C 13.492188 -18.109375 14.484375 -17.703125 15.328125 -17.171875 L 14 -13.921875 C 12.289062 -14.890625 10.582031 -15.375 8.875 -15.375 C 7.675781 -15.375 6.789062 -15.179688 6.21875 -14.796875 C 5.644531 -14.410156 5.359375 -13.898438 5.359375 -13.265625 C 5.359375 -12.628906 5.6875 -12.15625 6.34375 -11.84375 C 7.007812 -11.539062 8.019531 -11.238281 9.375 -10.9375 C 10.789062 -10.601562 11.945312 -10.269531 12.84375 -9.9375 C 13.738281 -9.601562 14.507812 -9.070312 15.15625 -8.34375 C 15.800781 -7.625 16.125 -6.648438 16.125 -5.421875 C 16.125 -4.359375 15.828125 -3.390625 15.234375 -2.515625 C 14.640625 -1.648438 13.753906 -0.960938 12.578125 -0.453125 C 11.398438 0.0546875 9.960938 0.3125 8.265625 0.3125 Z M 8.265625 0.3125 "/></g></g></g><g fill="#002b6d" fill-opacity="1"><g transform="translate(80.753883, 243.732274)"><g><path d="M 11.15625 0.3125 C 9.226562 0.3125 7.492188 -0.0976562 5.953125 -0.921875 C 4.410156 -1.753906 3.203125 -2.894531 2.328125 -4.34375 C 1.460938 -5.800781 1.03125 -7.4375 1.03125 -9.25 C 1.03125 -11.0625 1.460938 -12.691406 2.328125 -14.140625 C 3.203125 -15.597656 4.410156 -16.738281 5.953125 -17.5625 C 7.492188 -18.394531 9.226562 -18.8125 11.15625 -18.8125 C 13.070312 -18.8125 14.796875 -18.394531 16.328125 -17.5625 C 17.859375 -16.738281 19.0625 -15.597656 19.9375 -14.140625 C 20.820312 -12.691406 21.265625 -11.0625 21.265625 -9.25 C 21.265625 -7.4375 20.820312 -5.800781 19.9375 -4.34375 C 19.0625 -2.894531 17.859375 -1.753906 16.328125 -0.921875 C 14.796875 -0.0976562 13.070312 0.3125 11.15625 0.3125 Z M 11.15625 -3.328125 C 12.238281 -3.328125 13.222656 -3.578125 14.109375 -4.078125 C 14.992188 -4.578125 15.6875 -5.273438 16.1875 -6.171875 C 16.6875 -7.078125 16.9375 -8.101562 16.9375 -9.25 C 16.9375 -10.394531 16.6875 -11.414062 16.1875 -12.3125 C 15.6875 -13.207031 14.992188 -13.90625 14.109375 -14.40625 C 13.222656 -14.914062 12.238281 -15.171875 11.15625 -15.171875 C 10.0625 -15.171875 9.070312 -14.914062 8.1875 -14.40625 C 7.3125 -13.90625 6.617188 -13.207031 6.109375 -12.3125 C 5.609375 -11.414062 5.359375 -10.394531 5.359375 -9.25 C 5.359375 -8.101562 5.609375 -7.078125 6.109375 -6.171875 C 6.617188 -5.273438 7.3125 -4.578125 8.1875 -4.078125 C 9.070312 -3.578125 10.0625 -3.328125 11.15625 -3.328125 Z M 11.15625 -3.328125 "/></g></g></g><g fill="#002b6d" fill-opacity="1"><g transform="translate(113.617227, 243.732274)"><g><path d="M 11.046875 0.3125 C 9.160156 0.3125 7.453125 -0.09375 5.921875 -0.90625 C 4.398438 -1.726562 3.203125 -2.863281 2.328125 -4.3125 C 1.460938 -5.769531 1.03125 -7.414062 1.03125 -9.25 C 1.03125 -11.082031 1.460938 -12.722656 2.328125 -14.171875 C 3.203125 -15.628906 4.398438 -16.765625 5.921875 -17.578125 C 7.453125 -18.398438 9.171875 -18.8125 11.078125 -18.8125 C 12.671875 -18.8125 14.113281 -18.53125 15.40625 -17.96875 C 16.707031 -17.40625 17.800781 -16.59375 18.6875 -15.53125 L 15.9375 -13 C 14.6875 -14.445312 13.132812 -15.171875 11.28125 -15.171875 C 10.132812 -15.171875 9.113281 -14.914062 8.21875 -14.40625 C 7.320312 -13.90625 6.617188 -13.207031 6.109375 -12.3125 C 5.609375 -11.414062 5.359375 -10.394531 5.359375 -9.25 C 5.359375 -8.101562 5.609375 -7.078125 6.109375 -6.171875 C 6.617188 -5.273438 7.320312 -4.578125 8.21875 -4.078125 C 9.113281 -3.578125 10.132812 -3.328125 11.28125 -3.328125 C 13.132812 -3.328125 14.6875 -4.054688 15.9375 -5.515625 L 18.6875 -2.984375 C 17.800781 -1.910156 16.707031 -1.09375 15.40625 -0.53125 C 14.101562 0.03125 12.648438 0.3125 11.046875 0.3125 Z M 11.046875 0.3125 "/></g></g></g><g fill="#002b6d" fill-opacity="1"><g transform="translate(143.548619, 243.732274)"><g><path d="M 2.1875 -18.5 L 6.46875 -18.5 L 6.46875 0 L 2.1875 0 Z M 2.1875 -18.5 "/></g></g></g><g fill="#002b6d" fill-opacity="1"><g transform="translate(162.782325, 243.732274)"><g><path d="M 14.375 -3.96875 L 5.78125 -3.96875 L 4.140625 0 L -0.234375 0 L 8 -18.5 L 12.234375 -18.5 L 20.5 0 L 16.015625 0 Z M 13.03125 -7.21875 L 10.09375 -14.296875 L 7.15625 -7.21875 Z M 13.03125 -7.21875 "/></g></g></g><g fill="#002b6d" fill-opacity="1"><g transform="translate(193.585377, 243.732274)"><g><path d="M 2.1875 -18.5 L 6.46875 -18.5 L 6.46875 -3.484375 L 15.75 -3.484375 L 15.75 0 L 2.1875 0 Z M 2.1875 -18.5 "/></g></g></g><g fill="#002b6d" fill-opacity="1"><g transform="translate(220.109359, 243.732274)"><g/></g></g><g fill="#002b6d" fill-opacity="1"><g transform="translate(238.154436, 243.732274)"><g><path d="M 19.15625 -18.5 L 19.15625 0 L 14.875 0 L 14.875 -7.578125 L 6.46875 -7.578125 L 6.46875 0 L 2.1875 0 L 2.1875 -18.5 L 6.46875 -18.5 L 6.46875 -11.203125 L 14.875 -11.203125 L 14.875 -18.5 Z M 19.15625 -18.5 "/></g></g></g><g fill="#002b6d" fill-opacity="1"><g transform="translate(270.06689, 243.732274)"><g><path d="M 10.40625 0.3125 C 7.769531 0.3125 5.710938 -0.414062 4.234375 -1.875 C 2.765625 -3.332031 2.03125 -5.421875 2.03125 -8.140625 L 2.03125 -18.5 L 6.3125 -18.5 L 6.3125 -8.296875 C 6.3125 -4.984375 7.6875 -3.328125 10.4375 -3.328125 C 11.769531 -3.328125 12.789062 -3.726562 13.5 -4.53125 C 14.207031 -5.332031 14.5625 -6.585938 14.5625 -8.296875 L 14.5625 -18.5 L 18.78125 -18.5 L 18.78125 -8.140625 C 18.78125 -5.421875 18.046875 -3.332031 16.578125 -1.875 C 15.109375 -0.414062 13.050781 0.3125 10.40625 0.3125 Z M 10.40625 0.3125 "/></g></g></g><g fill="#002b6d" fill-opacity="1"><g transform="translate(301.451051, 243.732274)"><g><path d="M 15.78125 -9.625 C 16.832031 -9.28125 17.65625 -8.71875 18.25 -7.9375 C 18.851562 -7.15625 19.15625 -6.191406 19.15625 -5.046875 C 19.15625 -3.421875 18.523438 -2.171875 17.265625 -1.296875 C 16.003906 -0.429688 14.164062 0 11.75 0 L 2.1875 0 L 2.1875 -18.5 L 11.234375 -18.5 C 13.484375 -18.5 15.210938 -18.066406 16.421875 -17.203125 C 17.628906 -16.335938 18.234375 -15.164062 18.234375 -13.6875 C 18.234375 -12.789062 18.015625 -11.988281 17.578125 -11.28125 C 17.148438 -10.570312 16.550781 -10.019531 15.78125 -9.625 Z M 6.453125 -15.265625 L 6.453125 -10.90625 L 10.703125 -10.90625 C 11.753906 -10.90625 12.550781 -11.085938 13.09375 -11.453125 C 13.644531 -11.828125 13.921875 -12.378906 13.921875 -13.109375 C 13.921875 -13.828125 13.644531 -14.363281 13.09375 -14.71875 C 12.550781 -15.082031 11.753906 -15.265625 10.703125 -15.265625 Z M 11.4375 -3.21875 C 12.5625 -3.21875 13.410156 -3.398438 13.984375 -3.765625 C 14.554688 -4.140625 14.84375 -4.71875 14.84375 -5.5 C 14.84375 -7.03125 13.707031 -7.796875 11.4375 -7.796875 L 6.453125 -7.796875 L 6.453125 -3.21875 Z M 11.4375 -3.21875 "/></g></g></g><g clip-path="url(#506b56eb18)"><path fill="#002b6d" d="M 176.273438 95.761719 C 176.394531 95.035156 176.613281 94.3125 176.925781 93.65625 C 177.191406 92.933594 177.578125 92.277344 177.992188 91.675781 C 178.402344 91.070312 178.863281 90.488281 179.371094 89.957031 C 179.902344 89.425781 180.480469 88.964844 181.160156 88.503906 C 181.765625 88.117188 182.417969 87.777344 183.144531 87.441406 C 183.796875 87.175781 184.523438 86.980469 185.25 86.789062 C 185.972656 86.667969 186.699219 86.59375 187.5 86.59375 C 188.222656 86.59375 188.949219 86.667969 189.675781 86.789062 C 190.402344 86.980469 191.125 87.175781 191.851562 87.441406 C 192.507812 87.777344 193.183594 88.09375 193.835938 88.503906 C 194.441406 88.964844 195.023438 89.425781 195.554688 89.957031 C 196.085938 90.488281 196.546875 91.070312 196.933594 91.675781 C 197.394531 92.328125 197.730469 93.003906 197.996094 93.65625 C 198.335938 94.382812 198.53125 95.035156 198.652344 95.761719 C 198.84375 96.488281 198.917969 97.285156 198.917969 98.011719 C 198.917969 98.738281 198.84375 99.535156 198.652344 100.261719 C 198.53125 100.988281 198.3125 101.714844 197.996094 102.367188 C 197.730469 103.09375 197.394531 103.746094 196.933594 104.351562 C 196.546875 105.003906 196.0625 105.535156 195.554688 106.070312 C 195.023438 106.601562 194.441406 107.132812 193.835938 107.519531 C 193.183594 107.90625 192.507812 108.320312 191.851562 108.585938 C 191.125 108.851562 190.402344 109.117188 189.675781 109.238281 C 188.949219 109.359375 188.222656 109.429688 187.5 109.429688 C 186.699219 109.429688 185.972656 109.359375 185.25 109.238281 C 184.523438 109.117188 183.796875 108.851562 183.144531 108.585938 L 183.070312 108.585938 C 182.417969 108.320312 181.742188 107.929688 181.160156 107.519531 C 180.507812 107.132812 179.902344 106.601562 179.371094 106.070312 C 178.835938 105.535156 178.378906 105.003906 177.992188 104.351562 C 177.601562 103.746094 177.191406 103.09375 176.925781 102.367188 C 176.585938 101.714844 176.394531 100.988281 176.273438 100.261719 C 176.152344 99.535156 176.078125 98.738281 176.078125 98.011719 C 176.054688 97.285156 176.128906 96.488281 176.273438 95.761719 Z M 176.273438 95.761719 " fill-opacity="1" fill-rule="nonzero"/></g><path fill="#002b6d" d="M 172.691406 116.640625 C 174.144531 115.648438 175.742188 114.851562 177.3125 114.125 C 178.910156 113.472656 180.554688 113.011719 182.273438 112.671875 C 183.988281 112.285156 185.707031 112.140625 187.5 112.140625 C 189.214844 112.140625 191.007812 112.261719 192.652344 112.671875 C 194.367188 113.011719 196.015625 113.472656 197.609375 114.125 C 199.253906 114.851562 200.78125 115.648438 202.230469 116.640625 C 203.683594 117.632812 205.0625 118.746094 206.269531 119.953125 C 207.527344 121.210938 208.640625 122.542969 209.632812 124.042969 C 210.554688 125.421875 211.425781 127.019531 212.078125 128.617188 C 212.730469 130.210938 213.261719 131.859375 213.601562 133.574219 C 213.941406 135.292969 214.132812 137.011719 214.132812 138.800781 L 214.132812 138.992188 C 213.796875 138.800781 213.480469 138.65625 213.140625 138.535156 L 212.609375 138.339844 L 212.535156 138.339844 C 212.148438 138.148438 211.738281 138.074219 211.277344 137.953125 C 210.675781 137.832031 210.019531 137.761719 209.367188 137.761719 C 208.761719 137.761719 208.109375 137.832031 207.503906 137.953125 C 207.046875 138.074219 206.632812 138.148438 206.175781 138.339844 L 206.125 138.339844 L 205.667969 138.535156 C 205.0625 138.726562 204.480469 139.066406 203.949219 139.40625 C 203.417969 139.792969 202.957031 140.203125 202.496094 140.664062 C 202.039062 141.121094 201.625 141.582031 201.238281 142.113281 C 200.902344 142.648438 200.585938 143.226562 200.367188 143.832031 L 200.101562 144.363281 C 199.980469 144.824219 199.835938 145.234375 199.761719 145.695312 C 199.640625 146.300781 199.570312 146.953125 199.570312 147.558594 C 199.570312 148.210938 199.640625 148.890625 199.761719 149.46875 C 199.835938 149.929688 199.957031 150.339844 200.101562 150.726562 L 200.101562 150.800781 L 200.367188 151.332031 C 200.5625 151.9375 200.902344 152.515625 201.238281 153.050781 C 201.625 153.582031 202.039062 154.042969 202.496094 154.5 L 203.488281 155.492188 C 202.835938 155.832031 202.230469 156.144531 201.578125 156.484375 C 201.046875 156.824219 200.464844 157.210938 199.933594 157.597656 C 199.402344 157.984375 198.867188 158.46875 198.410156 158.929688 C 197.949219 159.316406 197.539062 159.800781 197.152344 160.1875 C 196.765625 160.644531 196.351562 161.105469 196.039062 161.636719 L 195.652344 162.171875 C 195.3125 161.976562 194.996094 161.832031 194.660156 161.710938 C 194.320312 161.589844 194.054688 161.445312 193.738281 161.371094 C 194.003906 161.179688 194.199219 160.984375 194.394531 160.765625 C 194.851562 160.308594 195.265625 159.847656 195.652344 159.316406 C 195.988281 158.710938 196.304688 158.203125 196.523438 157.597656 C 196.789062 156.992188 196.980469 156.414062 197.125 155.734375 C 197.246094 155.128906 197.320312 154.476562 197.320312 153.824219 C 197.320312 153.21875 197.246094 152.566406 197.125 151.960938 C 197.003906 151.308594 196.789062 150.703125 196.523438 150.097656 C 196.328125 149.492188 195.988281 148.914062 195.652344 148.378906 C 195.265625 147.847656 194.851562 147.390625 194.394531 146.929688 C 193.933594 146.46875 193.472656 146.058594 192.941406 145.671875 C 192.410156 145.332031 191.828125 145.019531 191.222656 144.800781 C 190.617188 144.535156 190.039062 144.339844 189.359375 144.195312 C 188.757812 144.074219 188.101562 144 187.5 144 C 186.84375 144 186.167969 144.074219 185.585938 144.195312 C 184.933594 144.316406 184.328125 144.535156 183.722656 144.800781 C 183.121094 144.992188 182.609375 145.332031 182.078125 145.671875 C 181.472656 146.058594 181.015625 146.46875 180.554688 146.929688 C 180.09375 147.390625 179.683594 147.847656 179.371094 148.378906 C 178.984375 148.914062 178.714844 149.492188 178.449219 150.097656 C 178.183594 150.703125 177.992188 151.285156 177.917969 151.960938 C 177.796875 152.566406 177.722656 153.21875 177.722656 153.824219 C 177.722656 154.476562 177.796875 155.15625 177.917969 155.734375 C 177.992188 156.386719 178.183594 156.992188 178.449219 157.597656 C 178.714844 158.203125 178.984375 158.710938 179.371094 159.316406 C 179.707031 159.847656 180.09375 160.308594 180.554688 160.765625 C 180.75 160.960938 180.941406 161.152344 181.207031 161.371094 C 180.871094 161.445312 180.601562 161.566406 180.335938 161.710938 C 180 161.832031 179.613281 161.976562 179.273438 162.171875 L 178.886719 161.636719 C 178.546875 161.105469 178.160156 160.644531 177.773438 160.1875 C 177.386719 159.800781 176.972656 159.316406 176.515625 158.929688 C 176.054688 158.46875 175.523438 158.007812 174.992188 157.597656 C 174.457031 157.1875 173.925781 156.800781 173.34375 156.484375 C 172.765625 156.171875 172.085938 155.832031 171.433594 155.492188 L 172.5 154.5 C 172.957031 154.042969 173.371094 153.582031 173.683594 153.050781 C 174.023438 152.515625 174.335938 151.9375 174.605469 151.332031 L 174.796875 150.800781 L 174.796875 150.679688 C 174.917969 150.292969 175.0625 149.878906 175.136719 149.421875 C 175.257812 148.816406 175.328125 148.164062 175.328125 147.511719 C 175.328125 146.90625 175.257812 146.25 175.136719 145.648438 C 175.0625 145.1875 174.941406 144.777344 174.796875 144.316406 L 174.605469 143.785156 C 174.335938 143.179688 174 142.597656 173.683594 142.066406 C 173.371094 141.535156 172.886719 141.074219 172.5 140.613281 L 172.425781 140.613281 C 172.039062 140.15625 171.507812 139.742188 170.976562 139.355469 C 170.441406 139.019531 169.910156 138.703125 169.328125 138.484375 L 168.796875 138.292969 L 168.726562 138.292969 C 168.335938 138.097656 167.855469 138.027344 167.46875 137.90625 C 166.8125 137.785156 166.207031 137.710938 165.554688 137.710938 C 164.902344 137.710938 164.296875 137.785156 163.644531 137.90625 C 163.257812 138.027344 162.773438 138.097656 162.386719 138.292969 L 162.3125 138.292969 L 161.78125 138.484375 C 161.441406 138.605469 161.128906 138.753906 160.863281 138.945312 L 160.863281 138.753906 C 160.863281 136.960938 160.984375 135.246094 161.320312 133.527344 C 161.710938 131.808594 162.191406 130.164062 162.847656 128.566406 C 163.5 126.96875 164.371094 125.398438 165.363281 123.996094 C 166.355469 122.472656 167.417969 121.164062 168.675781 119.90625 C 169.910156 118.769531 171.242188 117.632812 172.691406 116.640625 Z M 172.691406 116.640625 " fill-opacity="1" fill-rule="nonzero"/><path fill="#ff5050" d="M 180.628906 152.46875 C 180.699219 152.007812 180.820312 151.597656 181.015625 151.136719 C 181.207031 150.75 181.402344 150.269531 181.667969 149.953125 C 181.933594 149.566406 182.199219 149.226562 182.539062 148.890625 C 182.878906 148.550781 183.191406 148.234375 183.601562 148.019531 C 183.988281 147.75 184.402344 147.484375 184.789062 147.363281 C 185.25 147.171875 185.707031 147.027344 186.117188 146.976562 C 186.578125 146.855469 187.039062 146.855469 187.5 146.855469 C 187.957031 146.855469 188.367188 146.855469 188.828125 146.976562 C 189.289062 147.050781 189.699219 147.171875 190.160156 147.363281 C 190.546875 147.484375 191.03125 147.75 191.34375 148.019531 C 191.730469 148.210938 192.070312 148.550781 192.410156 148.890625 C 192.746094 149.226562 193.0625 149.542969 193.28125 149.953125 C 193.546875 150.339844 193.8125 150.75 193.933594 151.136719 C 194.125 151.597656 194.273438 152.007812 194.320312 152.46875 C 194.441406 152.929688 194.441406 153.339844 194.441406 153.800781 C 194.441406 154.257812 194.441406 154.71875 194.320312 155.179688 C 194.246094 155.566406 194.125 156.050781 193.933594 156.507812 C 193.8125 156.894531 193.546875 157.308594 193.28125 157.695312 C 193.015625 158.082031 192.746094 158.421875 192.410156 158.757812 C 192.144531 159.097656 191.757812 159.363281 191.34375 159.628906 C 190.933594 159.894531 190.546875 160.089844 190.160156 160.285156 C 189.699219 160.476562 189.289062 160.621094 188.828125 160.671875 C 188.367188 160.71875 187.957031 160.792969 187.5 160.792969 C 187.039062 160.792969 186.578125 160.71875 186.117188 160.671875 C 185.730469 160.597656 185.25 160.476562 184.789062 160.285156 C 184.402344 160.089844 183.988281 159.894531 183.601562 159.628906 C 183.214844 159.363281 182.878906 159.097656 182.539062 158.757812 C 182.199219 158.421875 181.933594 158.105469 181.667969 157.695312 C 181.402344 157.285156 181.207031 156.894531 181.015625 156.507812 C 180.820312 156.050781 180.675781 155.589844 180.628906 155.179688 C 180.554688 154.71875 180.507812 154.257812 180.507812 153.800781 C 180.507812 153.339844 180.554688 152.929688 180.628906 152.46875 Z M 180.628906 152.46875 " fill-opacity="1" fill-rule="nonzero"/><path fill="#ff5050" d="M 203.632812 151.40625 C 203.367188 151.019531 203.101562 150.605469 202.980469 150.21875 C 202.789062 149.757812 202.640625 149.347656 202.59375 148.890625 C 202.472656 148.429688 202.472656 147.96875 202.472656 147.511719 C 202.472656 147.050781 202.472656 146.640625 202.59375 146.179688 C 202.667969 145.71875 202.789062 145.308594 202.980469 144.847656 C 203.101562 144.460938 203.367188 143.976562 203.632812 143.664062 C 203.898438 143.277344 204.167969 142.863281 204.503906 142.597656 C 204.769531 142.261719 205.160156 141.992188 205.570312 141.726562 C 205.957031 141.460938 206.367188 141.195312 206.753906 141.074219 C 207.214844 140.882812 207.625 140.734375 208.085938 140.6875 C 208.546875 140.566406 208.957031 140.566406 209.417969 140.566406 C 209.875 140.566406 210.335938 140.566406 210.796875 140.6875 C 211.183594 140.761719 211.667969 140.882812 212.125 141.074219 C 212.511719 141.195312 212.925781 141.460938 213.3125 141.726562 C 213.699219 141.992188 214.035156 142.261719 214.375 142.597656 C 214.714844 142.863281 214.980469 143.253906 215.246094 143.664062 C 215.511719 144.050781 215.707031 144.460938 215.898438 144.847656 C 216.019531 145.308594 216.238281 145.71875 216.285156 146.179688 C 216.335938 146.640625 216.40625 147.050781 216.40625 147.511719 C 216.40625 147.96875 216.335938 148.429688 216.285156 148.890625 C 216.238281 149.347656 216.019531 149.757812 215.898438 150.21875 C 215.707031 150.605469 215.511719 151.019531 215.246094 151.40625 C 214.980469 151.792969 214.714844 152.128906 214.375 152.46875 C 214.035156 152.808594 213.722656 153.074219 213.3125 153.339844 C 212.925781 153.605469 212.511719 153.800781 212.125 153.992188 C 211.667969 154.1875 211.207031 154.332031 210.796875 154.378906 C 210.335938 154.453125 209.875 154.5 209.417969 154.5 C 208.957031 154.5 208.546875 154.429688 208.085938 154.378906 C 207.625 154.332031 207.214844 154.1875 206.753906 153.992188 C 206.367188 153.800781 205.957031 153.605469 205.570312 153.339844 C 205.183594 153.074219 204.769531 152.808594 204.503906 152.46875 C 204.167969 152.128906 203.828125 151.816406 203.632812 151.40625 Z M 203.632812 151.40625 " fill-opacity="1" fill-rule="nonzero"/><g clip-path="url(#d492d9db1c)"><path fill="#ff5050" d="M 242.027344 149.226562 C 241.6875 155.636719 240.308594 161.78125 237.9375 167.46875 C 235.15625 174.144531 231.140625 180.167969 226.109375 185.175781 C 216.191406 195.023438 202.570312 201.167969 187.5 201.167969 C 180.09375 201.167969 173.03125 199.714844 166.621094 197.007812 C 159.941406 194.226562 153.871094 190.207031 148.839844 185.175781 C 139.574219 175.863281 133.550781 163.234375 132.894531 149.226562 L 137.929688 154.257812 L 141.171875 151.019531 C 141.628906 155.710938 142.765625 160.210938 144.484375 164.371094 C 145.476562 166.742188 146.660156 168.992188 147.992188 171.167969 C 148.066406 170.566406 148.113281 169.984375 148.257812 169.378906 C 148.453125 168.386719 148.71875 167.394531 149.128906 166.402344 C 149.46875 165.605469 149.925781 164.808594 150.386719 164.082031 L 150.316406 164.082031 L 150.773438 163.476562 C 150.96875 163.089844 151.234375 162.75 151.574219 162.363281 L 151.644531 162.363281 L 151.71875 162.292969 L 151.71875 162.21875 L 151.789062 162.144531 C 152.054688 161.878906 152.324219 161.542969 152.589844 161.273438 C 152.925781 160.886719 153.386719 160.550781 153.847656 160.164062 C 154.304688 159.773438 154.765625 159.4375 155.175781 159.171875 C 155.832031 158.710938 156.507812 158.371094 157.234375 158.058594 C 157.886719 157.71875 158.613281 157.453125 159.289062 157.257812 L 159.363281 157.257812 L 159.433594 157.1875 L 159.652344 157.1875 L 159.652344 157.113281 L 159.871094 157.113281 L 159.941406 157.042969 C 160.28125 156.96875 160.546875 156.921875 160.863281 156.847656 C 161.660156 156.726562 162.460938 156.582031 163.304688 156.582031 L 164.539062 156.582031 C 165.410156 156.582031 166.257812 156.703125 167.128906 156.847656 C 167.25 156.921875 167.394531 156.921875 167.515625 156.96875 L 167.804688 156.96875 L 167.804688 157.042969 L 168.023438 157.042969 L 168.289062 157.113281 C 169.015625 157.308594 169.667969 157.574219 170.273438 157.839844 C 170.925781 158.105469 171.605469 158.445312 172.183594 158.832031 C 172.714844 159.097656 173.175781 159.4375 173.636719 159.75 C 174.023438 160.089844 174.507812 160.476562 174.894531 160.863281 C 175.28125 161.203125 175.691406 161.589844 176.007812 161.929688 C 176.34375 162.316406 176.660156 162.726562 176.925781 163.113281 L 177.191406 163.453125 C 176.199219 164.105469 175.328125 164.832031 174.554688 165.628906 C 173.683594 166.5 172.910156 167.492188 172.234375 168.460938 C 171.507812 169.523438 170.976562 170.566406 170.515625 171.703125 C 169.984375 172.816406 169.644531 174.023438 169.402344 175.210938 C 169.207031 176.394531 169.0625 177.652344 169.0625 178.839844 L 169.0625 189.144531 C 169.328125 189.265625 169.667969 189.339844 169.933594 189.484375 C 170.585938 189.75 171.265625 190.015625 171.847656 190.28125 L 171.847656 178.839844 C 171.847656 177.773438 171.964844 176.734375 172.183594 175.742188 C 172.402344 174.75 172.714844 173.757812 173.105469 172.765625 C 173.492188 171.847656 173.976562 170.902344 174.554688 170.058594 C 175.136719 169.210938 175.8125 168.339844 176.539062 167.613281 C 177.265625 166.886719 178.0625 166.234375 178.910156 165.628906 C 179.828125 165.097656 180.699219 164.566406 181.691406 164.179688 C 182.609375 163.792969 183.601562 163.453125 184.667969 163.257812 C 185.660156 163.066406 186.722656 162.992188 187.765625 162.992188 C 188.828125 162.992188 189.820312 163.066406 190.8125 163.257812 C 191.875 163.453125 192.867188 163.792969 193.789062 164.179688 C 194.78125 164.566406 195.699219 165.097656 196.570312 165.628906 C 197.441406 166.234375 198.214844 166.886719 198.941406 167.613281 C 199.738281 168.339844 200.390625 169.210938 200.925781 170.058594 C 201.53125 170.929688 202.039062 171.847656 202.449219 172.765625 C 202.835938 173.757812 203.101562 174.75 203.320312 175.742188 C 203.539062 176.734375 203.660156 177.796875 203.660156 178.839844 L 203.660156 190.355469 C 204.3125 190.089844 204.917969 189.820312 205.570312 189.554688 C 205.835938 189.433594 206.175781 189.363281 206.441406 189.21875 L 206.441406 178.910156 C 206.441406 177.726562 206.367188 176.46875 206.101562 175.28125 C 205.835938 174.097656 205.496094 172.910156 205.039062 171.773438 C 204.578125 170.636719 203.972656 169.597656 203.320312 168.53125 C 202.59375 167.539062 201.796875 166.550781 200.949219 165.703125 C 200.152344 164.902344 199.304688 164.179688 198.359375 163.523438 L 198.554688 163.1875 C 198.894531 162.800781 199.160156 162.386719 199.546875 162 C 199.882812 161.664062 200.199219 161.273438 200.609375 160.9375 C 200.996094 160.550781 201.480469 160.136719 201.941406 159.824219 C 202.328125 159.484375 202.859375 159.171875 203.320312 158.90625 C 203.925781 158.515625 204.578125 158.179688 205.230469 157.914062 C 205.882812 157.644531 206.5625 157.378906 207.214844 157.1875 L 207.480469 157.113281 L 207.699219 157.113281 L 207.699219 157.042969 L 207.988281 157.042969 C 208.109375 156.96875 208.253906 156.96875 208.375 156.921875 C 209.246094 156.800781 210.09375 156.65625 210.964844 156.65625 L 212.269531 156.65625 C 213.070312 156.65625 213.914062 156.777344 214.714844 156.921875 C 214.980469 156.992188 215.320312 157.042969 215.585938 157.113281 L 215.65625 157.113281 L 215.730469 157.1875 L 215.875 157.1875 L 215.949219 157.257812 L 216.164062 157.257812 L 216.164062 157.332031 L 216.238281 157.332031 C 216.964844 157.523438 217.617188 157.792969 218.292969 158.128906 C 219.019531 158.46875 219.671875 158.785156 220.351562 159.242188 C 220.8125 159.507812 221.269531 159.847656 221.730469 160.234375 C 222.191406 160.621094 222.601562 160.960938 222.988281 161.347656 C 223.253906 161.613281 223.519531 161.953125 223.785156 162.21875 L 223.785156 162.292969 L 223.859375 162.363281 L 223.929688 162.4375 C 224.269531 162.824219 224.535156 163.164062 224.800781 163.550781 L 225.1875 164.152344 C 225.648438 164.878906 226.058594 165.679688 226.375 166.476562 C 226.761719 167.46875 227.101562 168.460938 227.292969 169.453125 C 227.367188 170.058594 227.488281 170.636719 227.488281 171.242188 C 228.867188 169.066406 230.003906 166.816406 230.996094 164.445312 C 232.714844 160.285156 233.898438 155.785156 234.308594 151.089844 L 237.550781 154.332031 Z M 242.027344 149.226562 " fill-opacity="1" fill-rule="nonzero"/></g><g clip-path="url(#42722e88b4)"><path fill="#002b6d" d="M 148.886719 139.308594 L 137.902344 150.292969 L 127.019531 139.308594 L 133.355469 139.308594 C 133.960938 134.542969 135.21875 129.996094 136.984375 125.6875 C 139.765625 119.011719 143.78125 112.9375 148.816406 107.90625 C 155.417969 101.300781 163.742188 96.414062 173.078125 93.898438 L 173.949219 93.632812 C 173.757812 94.164062 173.613281 94.699219 173.492188 95.230469 C 173.371094 96.148438 173.226562 97.09375 173.226562 98.011719 C 173.226562 98.933594 173.34375 99.875 173.492188 100.792969 C 173.613281 101.253906 173.683594 101.664062 173.828125 102.050781 C 170.199219 103.164062 166.765625 104.761719 163.597656 106.671875 C 160.28125 108.585938 157.304688 110.980469 154.597656 113.6875 C 150.289062 117.996094 146.855469 123.074219 144.484375 128.761719 C 143.105469 132.125 142.113281 135.703125 141.507812 139.332031 L 148.886719 139.332031 Z M 148.886719 139.308594 " fill-opacity="1" fill-rule="nonzero"/></g><g clip-path="url(#9bedcf8ba2)"><path fill="#002b6d" d="M 247.980469 139.308594 L 236.996094 150.292969 L 226.109375 139.308594 L 233.4375 139.308594 C 232.835938 135.679688 231.84375 132.097656 230.464844 128.738281 C 228.140625 123.050781 224.65625 117.972656 220.351562 113.664062 C 217.714844 110.957031 214.664062 108.585938 211.425781 106.648438 C 208.183594 104.714844 204.746094 103.140625 201.117188 102.027344 C 201.238281 101.640625 201.382812 101.230469 201.457031 100.769531 C 201.652344 99.851562 201.722656 98.90625 201.722656 97.988281 C 201.722656 97.070312 201.652344 96.125 201.457031 95.207031 C 201.335938 94.675781 201.191406 94.140625 201.070312 93.609375 L 201.867188 93.875 C 206.488281 95.132812 210.867188 96.925781 214.882812 99.292969 C 219.042969 101.664062 222.820312 104.59375 226.109375 107.882812 C 231.140625 112.914062 235.15625 118.988281 237.9375 125.664062 C 239.730469 129.96875 240.988281 134.519531 241.640625 139.285156 L 247.980469 139.285156 Z M 247.980469 139.308594 " fill-opacity="1" fill-rule="nonzero"/></g><path fill="#ff5050" d="M 172.425781 148.914062 C 172.304688 149.371094 172.160156 149.785156 172.039062 150.242188 C 171.847656 150.628906 171.652344 151.042969 171.386719 151.429688 C 171.121094 151.816406 170.78125 152.15625 170.515625 152.492188 C 170.175781 152.832031 169.789062 153.097656 169.449219 153.363281 C 169.0625 153.628906 168.652344 153.824219 168.191406 154.015625 C 167.804688 154.210938 167.320312 154.355469 166.933594 154.40625 C 166.476562 154.476562 166.015625 154.527344 165.554688 154.527344 C 165.097656 154.527344 164.636719 154.453125 164.226562 154.40625 C 163.765625 154.332031 163.304688 154.210938 162.894531 154.015625 C 162.433594 153.824219 162.023438 153.628906 161.636719 153.363281 C 161.25 153.097656 160.910156 152.832031 160.570312 152.492188 C 160.304688 152.15625 159.96875 151.839844 159.703125 151.429688 C 159.433594 151.019531 159.242188 150.628906 159.097656 150.242188 C 158.902344 149.785156 158.757812 149.371094 158.636719 148.914062 C 158.5625 148.453125 158.515625 147.992188 158.515625 147.535156 C 158.515625 147.074219 158.589844 146.664062 158.636719 146.203125 C 158.757812 145.742188 158.902344 145.332031 159.097656 144.871094 C 159.21875 144.484375 159.433594 144 159.703125 143.6875 C 159.96875 143.300781 160.304688 142.890625 160.570312 142.621094 C 160.910156 142.285156 161.226562 142.019531 161.636719 141.753906 C 162.046875 141.484375 162.433594 141.21875 162.894531 141.097656 C 163.28125 140.90625 163.765625 140.761719 164.226562 140.710938 C 164.613281 140.589844 165.097656 140.589844 165.554688 140.589844 C 166.015625 140.589844 166.476562 140.589844 166.933594 140.710938 C 167.320312 140.785156 167.804688 140.90625 168.191406 141.097656 C 168.652344 141.21875 169.0625 141.484375 169.449219 141.753906 C 169.789062 142.019531 170.175781 142.285156 170.515625 142.621094 C 170.855469 142.960938 171.121094 143.277344 171.386719 143.6875 C 171.652344 144.074219 171.847656 144.484375 172.039062 144.871094 C 172.160156 145.332031 172.304688 145.742188 172.425781 146.203125 C 172.5 146.664062 172.546875 147.074219 172.546875 147.535156 C 172.546875 147.992188 172.5 148.429688 172.425781 148.914062 Z M 172.425781 148.914062 " fill-opacity="1" fill-rule="nonzero"/></svg>